<?xml version="1.0" encoding="UTF-8" standalone="no"?>
<!-- Created with Inkscape (http://www.inkscape.org/) -->

<svg
   xmlns:dc="http://purl.org/dc/elements/1.1/"
   xmlns:cc="http://creativecommons.org/ns#"
   xmlns:rdf="http://www.w3.org/1999/02/22-rdf-syntax-ns#"
   xmlns:svg="http://www.w3.org/2000/svg"
   xmlns="http://www.w3.org/2000/svg"
   xmlns:xlink="http://www.w3.org/1999/xlink"
   xmlns:sodipodi="http://sodipodi.sourceforge.net/DTD/sodipodi-0.dtd"
   xmlns:inkscape="http://www.inkscape.org/namespaces/inkscape"
   width="896"
   height="300"
   id="svg2"
   sodipodi:version="0.32"
   inkscape:version="0.48.4 r9939"
   sodipodi:docname="ftsrg-logo.svg"
   inkscape:output_extension="org.inkscape.output.svg.inkscape"
   version="1.0">
  <defs
     id="defs4">
    <inkscape:perspective
       sodipodi:type="inkscape:persp3d"
       inkscape:vp_x="0 : 372.04724 : 1"
       inkscape:vp_y="0 : 1000 : 0"
       inkscape:vp_z="1052.3622 : 372.04724 : 1"
       inkscape:persp3d-origin="526.18109 : 248.03149 : 1"
       id="perspective82" />
    <marker
       inkscape:stockid="Tail"
       orient="auto"
       refY="0"
       refX="0"
       id="Tail"
       style="overflow:visible">
      <g
         id="g3246"
         transform="scale(-1.2,-1.2)">
        <path
           id="path3248"
           d="M -3.8048674,-3.9585227 0.54352094,0"
           style="fill:none;stroke:#000000;stroke-width:0.80000001;stroke-linecap:round;marker-start:none;marker-end:none"
           inkscape:connector-curvature="0" />
        <path
           id="path3250"
           d="M -1.2866832,-3.9585227 3.0617053,0"
           style="fill:none;stroke:#000000;stroke-width:0.80000001;stroke-linecap:round;marker-start:none;marker-end:none"
           inkscape:connector-curvature="0" />
        <path
           id="path3252"
           d="M 1.3053582,-3.9585227 5.6537466,0"
           style="fill:none;stroke:#000000;stroke-width:0.80000001;stroke-linecap:round;marker-start:none;marker-end:none"
           inkscape:connector-curvature="0" />
        <path
           id="path3254"
           d="M -3.8048674,4.1775838 0.54352094,0.21974226"
           style="fill:none;stroke:#000000;stroke-width:0.80000001;stroke-linecap:round;marker-start:none;marker-end:none"
           inkscape:connector-curvature="0" />
        <path
           id="path3256"
           d="M -1.2866832,4.1775838 3.0617053,0.21974226"
           style="fill:none;stroke:#000000;stroke-width:0.80000001;stroke-linecap:round;marker-start:none;marker-end:none"
           inkscape:connector-curvature="0" />
        <path
           id="path3258"
           d="M 1.3053582,4.1775838 5.6537466,0.21974226"
           style="fill:none;stroke:#000000;stroke-width:0.80000001;stroke-linecap:round;marker-start:none;marker-end:none"
           inkscape:connector-curvature="0" />
      </g>
    </marker>
    <marker
       inkscape:stockid="Arrow1Lend"
       orient="auto"
       refY="0"
       refX="0"
       id="Arrow1Lend"
       style="overflow:visible">
      <path
         id="path3213"
         d="M 0,0 5,-5 -12.5,0 5,5 0,0 z"
         style="fill-rule:evenodd;stroke:#000000;stroke-width:1pt;marker-start:none"
         transform="matrix(-0.8,0,0,-0.8,-10,0)"
         inkscape:connector-curvature="0" />
    </marker>
    <marker
       inkscape:stockid="Torso"
       orient="auto"
       refY="0"
       refX="0"
       id="Torso"
       style="overflow:visible">
      <g
         id="g3423"
         transform="scale(0.7,0.7)">
        <path
           id="path3425"
           d="m -4.7792281,-3.239542 c 2.350374,0.3659393 5.30026732,1.9375477 5.03715532,3.62748546 C -0.00518779,2.0778819 -2.2126741,2.6176539 -4.5630471,2.2517169 -6.9134221,1.8857769 -8.521035,0.75201414 -8.257922,-0.93792336 -7.994809,-2.6278615 -7.1296041,-3.6054813 -4.7792281,-3.239542 z"
           style="fill:none;stroke:#000000;stroke-width:1.25;marker-start:none;marker-mid:none;marker-end:none"
           inkscape:connector-curvature="0" />
        <path
           id="path3427"
           d="M 4.4598789,0.08866574 C -2.5564571,-4.378332 5.2248769,-3.9061806 -0.84829578,-8.7197331"
           style="fill:none;stroke:#000000;stroke-width:1pt;marker-end:none"
           inkscape:connector-curvature="0" />
        <path
           id="path3429"
           d="M 4.9298719,0.05752074 C -1.3872731,1.7494689 1.8027579,5.4782079 -4.9448731,7.5462725"
           style="fill:none;stroke:#000000;stroke-width:1pt;marker-start:none;marker-end:none"
           inkscape:connector-curvature="0" />
        <rect
           id="rect3431"
           transform="matrix(0.527536,-0.849533,0.887668,0.460484,0,0)"
           y="-1.7408575"
           x="-10.391706"
           height="2.7608147"
           width="2.6366582"
           style="fill-rule:evenodd;stroke-width:1pt;marker-end:none" />
        <rect
           id="rect3433"
           transform="matrix(0.671205,-0.741272,0.790802,0.612072,0,0)"
           y="-7.9629307"
           x="4.9587269"
           height="2.8614161"
           width="2.7327356"
           style="fill-rule:evenodd;stroke-width:1pt;marker-end:none" />
        <path
           id="path3435"
           transform="matrix(0,-1.109517,1.109517,0,25.96648,19.71619)"
           d="m 16.779951,-28.685045 a 0.60731727,0.60731727 0 1 1 -1.214634,0 0.60731727,0.60731727 0 1 1 1.214634,0 z"
           sodipodi:ry="0.60731727"
           sodipodi:rx="0.60731727"
           sodipodi:cy="-28.685045"
           sodipodi:cx="16.172634"
           style="fill:#ff0000;fill-opacity:0.75;fill-rule:evenodd;stroke:#000000;stroke-width:1pt;marker-start:none;marker-end:none"
           sodipodi:type="arc" />
        <path
           id="path3437"
           transform="matrix(0,-1.109517,1.109517,0,26.8245,16.99126)"
           d="m 16.779951,-28.685045 a 0.60731727,0.60731727 0 1 1 -1.214634,0 0.60731727,0.60731727 0 1 1 1.214634,0 z"
           sodipodi:ry="0.60731727"
           sodipodi:rx="0.60731727"
           sodipodi:cy="-28.685045"
           sodipodi:cx="16.172634"
           style="fill:#ff0000;fill-opacity:0.75;fill-rule:evenodd;stroke:#000000;stroke-width:1pt;marker-start:none;marker-end:none"
           sodipodi:type="arc" />
      </g>
    </marker>
    <marker
       inkscape:stockid="Arrow1Mend"
       orient="auto"
       refY="0"
       refX="0"
       id="Arrow1Mend"
       style="overflow:visible">
      <path
         id="path3219"
         d="M 0,0 5,-5 -12.5,0 5,5 0,0 z"
         style="fill-rule:evenodd;stroke:#000000;stroke-width:1pt;marker-start:none"
         transform="matrix(-0.4,0,0,-0.4,-4,0)"
         inkscape:connector-curvature="0" />
    </marker>
    <linearGradient
       id="linearGradient3259">
      <stop
         id="stop3261"
         offset="0"
         style="stop-color:#ffffff;stop-opacity:1;" />
      <stop
         style="stop-color:#e1452e;stop-opacity:0.74285716;"
         offset="0.65161133"
         id="stop3263" />
      <stop
         id="stop3265"
         offset="1"
         style="stop-color:#ce5928;stop-opacity:0.75;" />
    </linearGradient>
    <linearGradient
       id="linearGradient3223">
      <stop
         style="stop-color:#ffffff;stop-opacity:1;"
         offset="0"
         id="stop3225" />
      <stop
         id="stop3239"
         offset="0.47959185"
         style="stop-color:#92f9a8;stop-opacity:1;" />
      <stop
         style="stop-color:#27e662;stop-opacity:1;"
         offset="1"
         id="stop3227" />
    </linearGradient>
    <radialGradient
       inkscape:collect="always"
       xlink:href="#linearGradient3223"
       id="radialGradient3229"
       cx="284.24179"
       cy="170.02261"
       fx="284.24179"
       fy="170.02261"
       r="116.14286"
       gradientUnits="userSpaceOnUse"
       gradientTransform="matrix(1.7275022,-0.5344396,0.464029,1.4999102,-285.682,66.91404)" />
    <radialGradient
       inkscape:collect="always"
       xlink:href="#linearGradient3223"
       id="radialGradient3237"
       cx="225.04393"
       cy="170.02261"
       fx="225.04393"
       fy="170.02261"
       r="116.14286"
       gradientUnits="userSpaceOnUse"
       gradientTransform="matrix(0.5145156,-1.525805,1.7134859,0.5778034,-182.07601,415.15612)" />
    <radialGradient
       inkscape:collect="always"
       xlink:href="#linearGradient3223"
       id="radialGradient3255"
       cx="298.98782"
       cy="200.2222"
       fx="298.98782"
       fy="200.2222"
       r="116.14286"
       gradientUnits="userSpaceOnUse"
       gradientTransform="matrix(0.8034208,-1.6383468,1.3441473,0.6591497,-291.78904,511.40713)" />
    <radialGradient
       inkscape:collect="always"
       xlink:href="#linearGradient3259"
       id="radialGradient3287"
       cx="265.5994"
       cy="212.75415"
       fx="265.5994"
       fy="212.75415"
       r="116.14286"
       gradientUnits="userSpaceOnUse"
       gradientTransform="matrix(0.3862926,-1.2084332,1.1089747,0.3544993,-96.258784,454.71186)" />
  </defs>
  <sodipodi:namedview
     id="base"
     pagecolor="#ffffff"
     bordercolor="#666666"
     borderopacity="1.0"
     inkscape:pageopacity="0.0"
     inkscape:pageshadow="2"
     inkscape:zoom="0.5"
     inkscape:cx="238.12335"
     inkscape:cy="63.622219"
     inkscape:document-units="px"
     inkscape:current-layer="layer1"
     showgrid="false"
     inkscape:window-width="1024"
     inkscape:window-height="743"
     inkscape:window-x="1635"
     inkscape:window-y="272"
     gridtolerance="10"
     inkscape:object-nodes="true"
     guidetolerance="10000"
     showguides="true"
     inkscape:guide-bbox="true"
     inkscape:snap-global="true"
     inkscape:snap-bbox="true"
     inkscape:bbox-paths="true"
     fit-margin-top="0"
     fit-margin-left="0"
     fit-margin-right="0"
     fit-margin-bottom="0"
     inkscape:window-maximized="0">
    <inkscape:grid
       type="xygrid"
       id="grid2433"
       visible="true"
       enabled="true"
       empspacing="5"
       snapvisiblegridlinesonly="true"
       originx="-52px"
       originy="-390px" />
  </sodipodi:namedview>
  <metadata
     id="metadata7">
    <rdf:RDF>
      <cc:Work
         rdf:about="">
        <dc:format>image/svg+xml</dc:format>
        <dc:type
           rdf:resource="http://purl.org/dc/dcmitype/StillImage" />
      </cc:Work>
    </rdf:RDF>
  </metadata>
  <g
     inkscape:label="1. réteg"
     inkscape:groupmode="layer"
     id="layer1"
     transform="translate(-52,-54.094482)">
    <path
       sodipodi:type="arc"
       style="fill:url(#radialGradient3237);fill-opacity:1;fill-rule:nonzero;stroke:#000000;stroke-width:7.21209002;stroke-linejoin:miter;stroke-miterlimit:4;stroke-opacity:1;stroke-dasharray:none"
       id="path2439"
       sodipodi:cx="254.64285"
       sodipodi:cy="227.71933"
       sodipodi:rx="114.64286"
       sodipodi:ry="114.64286"
       d="m 369.28571,227.71933 c 0,63.3155 -51.32735,114.64286 -114.64286,114.64286 -63.3155,0 -114.64286,-51.32736 -114.64286,-114.64286 0,-63.3155 51.32736,-114.64286 114.64286,-114.64286 63.31551,0 114.64286,51.32736 114.64286,114.64286 z"
       transform="matrix(0.6932803,0,0,0.6932803,203.98149,46.221157)" />
    <path
       sodipodi:type="arc"
       style="fill:url(#radialGradient3255);fill-opacity:1;fill-rule:nonzero;stroke:#000000;stroke-width:7.21209002;stroke-linejoin:miter;stroke-miterlimit:4;stroke-opacity:1;stroke-dasharray:none"
       id="path2447"
       sodipodi:cx="254.64285"
       sodipodi:cy="227.71933"
       sodipodi:rx="114.64286"
       sodipodi:ry="114.64286"
       d="m 369.28571,227.71933 c 0,63.3155 -51.32735,114.64286 -114.64286,114.64286 -63.3155,0 -114.64286,-51.32736 -114.64286,-114.64286 0,-63.3155 51.32736,-114.64286 114.64286,-114.64286 63.31551,0 114.64286,51.32736 114.64286,114.64286 z"
       transform="matrix(0.6932803,0,0,0.6932803,442.94076,46.221157)" />
    <path
       sodipodi:type="arc"
       style="fill:url(#radialGradient3287);fill-opacity:1;fill-rule:nonzero;stroke:#000000;stroke-width:7.21209002;stroke-linejoin:miter;stroke-miterlimit:4;stroke-opacity:1;stroke-dasharray:none"
       id="path2449"
       sodipodi:cx="254.64285"
       sodipodi:cy="227.71933"
       sodipodi:rx="114.64286"
       sodipodi:ry="114.64286"
       d="m 369.28571,227.71933 c 0,63.3155 -51.32735,114.64286 -114.64286,114.64286 -63.3155,0 -114.64286,-51.32736 -114.64286,-114.64286 0,-63.3155 51.32736,-114.64286 114.64286,-114.64286 63.31551,0 114.64286,51.32736 114.64286,114.64286 z"
       transform="matrix(0.6932803,0,0,0.6932803,683.46113,46.74152)" />
    <path
       sodipodi:type="arc"
       style="fill:url(#radialGradient3229);fill-opacity:1;fill-rule:nonzero;stroke:#000000;stroke-width:7.21209002;stroke-linejoin:miter;stroke-miterlimit:4;stroke-opacity:1;stroke-dasharray:none"
       id="path2451"
       sodipodi:cx="254.64285"
       sodipodi:cy="227.71933"
       sodipodi:rx="114.64286"
       sodipodi:ry="114.64286"
       d="m 369.28571,227.71933 c 0,63.3155 -51.32735,114.64286 -114.64286,114.64286 -63.3155,0 -114.64286,-51.32736 -114.64286,-114.64286 0,-63.3155 51.32736,-114.64286 114.64286,-114.64286 63.31551,0 114.64286,51.32736 114.64286,114.64286 z"
       transform="matrix(0.6932803,0,0,0.6932803,-37.059237,46.221157)" />
    <g
       id="g2421">
      <path
         id="path2417"
         d="m 186.42752,197.42299 c 2.76268,5e-5 5.11221,0.69045 7.04852,2.07118 1.93595,1.38084 2.90404,3.05901 2.90419,5.03452 -1.5e-4,1.9726 -0.96824,3.64926 -2.90419,5.03001 -1.93631,1.38082 -4.28584,2.07121 -7.04852,2.07118 l -107.398484,0 c -2.762933,3e-5 -5.112458,-0.69036 -7.048519,-2.07118 -1.936201,-1.38075 -2.904232,-3.05741 -2.904176,-5.03001 -5.6e-5,-1.97551 0.967975,-3.65368 2.904176,-5.03452 1.936061,-1.38073 4.285586,-2.07113 7.048519,-2.07118 l 107.398484,0 0,0 z"
         style="font-size:40px;font-style:normal;font-variant:normal;font-weight:normal;font-stretch:normal;text-align:start;line-height:125%;writing-mode:lr-tb;text-anchor:start;fill:#000000;fill-opacity:1;stroke:none;font-family:Space Age;-inkscape-font-specification:Space Age"
         inkscape:connector-curvature="0" />
      <path
         id="path2415"
         d="m 80.624607,204.52869 c 0,-3.75231 0.616625,-7.52801 1.849839,-11.32711 1.233214,-3.79898 3.034131,-7.25245 5.402678,-10.3604 2.368547,-3.10784 5.230269,-5.64881 8.585128,-7.62294 3.354822,-1.97398 7.153858,-2.961 11.397118,-2.96108 l 84.82122,0 c 1.9724,8e-5 3.64909,0.69122 5.02999,2.07344 1.38065,1.38236 2.07106,3.05978 2.07117,5.03226 -1.1e-4,1.97262 -0.69052,3.65004 -2.07117,5.03226 -1.3809,1.38235 -3.05759,2.0735 -5.02999,2.07344 l -81.70879,0 c -3.2585,6e-5 -5.92372,0.54289 -7.99563,1.62848 -2.07194,1.08572 -3.699675,2.4921 -4.88319,4.21915 -1.183552,1.72717 -1.997417,3.577 -2.441596,5.5495 -0.444216,1.9726 -0.715986,3.84727 -0.815346,5.62403 l 0,26.20029 c -3.7e-5,1.97257 -0.691192,3.64999 -2.073464,5.03227 -1.382309,1.3823 -3.059702,2.07344 -5.032251,2.07343 -1.97255,10e-6 -3.64998,-0.69113 -5.032252,-2.07343 -1.382309,-1.38228 -2.073464,-3.0597 -2.073464,-5.03227 l 0,-25.16132 0,0 z"
         style="font-size:40px;font-style:normal;font-variant:normal;font-weight:normal;font-stretch:normal;text-align:start;line-height:125%;writing-mode:lr-tb;text-anchor:start;fill:#000000;fill-opacity:1;stroke:none;font-family:Space Age;-inkscape-font-specification:Space Age"
         inkscape:connector-curvature="0" />
    </g>
    <path
       style="font-size:40px;font-style:normal;font-variant:normal;font-weight:normal;font-stretch:normal;text-align:start;line-height:125%;writing-mode:lr-tb;text-anchor:start;fill:#000000;fill-opacity:1;stroke:none;font-family:Space Age;-inkscape-font-specification:Space Age"
       d="m 433.28,171.23734 c 1.97243,8e-5 3.64986,0.69122 5.03228,2.07344 1.38216,1.38236 2.07332,3.05978 2.07343,5.03226 -1.1e-4,1.87625 -0.64157,3.47988 -1.92437,4.81091 -1.28302,1.33116 -2.81287,2.09609 -4.58955,2.29479 l -29.7554,0 c -2.96041,0.19581 -5.40279,0.91105 -7.32708,2.14571 -1.92444,1.23479 -3.42943,2.7398 -4.51503,4.51504 -1.0857,1.77535 -1.82582,3.69896 -2.22022,5.77084 -0.3946,2.07198 -0.59187,3.94816 -0.5918,5.62854 l 0,25.16132 c -7e-5,1.97257 -0.69045,3.64999 -2.07117,5.03227 -1.38083,1.3823 -3.05903,2.07344 -5.03451,2.07343 -1.97262,1e-5 -3.64927,-0.69113 -5.02999,-2.07343 -1.38087,-1.38228 -2.07124,-3.0597 -2.07121,-5.03227 l 0,-25.16132 c -3e-5,-3.05966 0.39448,-6.14422 1.18355,-9.25367 0.78896,-3.10935 1.97248,-6.04483 3.55059,-8.80646 l -48.55187,0 c -1.97255,6e-5 -3.64998,-0.69109 -5.03225,-2.07344 -1.38231,-1.38222 -2.07347,-3.05964 -2.07343,-5.03226 -4e-5,-1.97248 0.69112,-3.6499 2.07343,-5.03226 1.38227,-1.38222 3.0597,-2.07336 5.03225,-2.07344 l 101.84235,0 z"
       id="path2413"
       inkscape:connector-curvature="0" />
    <path
       style="font-size:40px;font-style:normal;font-variant:normal;font-weight:normal;font-stretch:normal;text-align:start;line-height:125%;writing-mode:lr-tb;text-anchor:start;fill:#000000;fill-opacity:1;stroke:none;font-family:Space Age;-inkscape-font-specification:Space Age"
       d="m 579.27389,210.61006 c -2.76461,3e-5 -5.33118,-0.51795 -7.69973,-1.55395 -2.36858,-1.03593 -4.44053,-2.44156 -6.2158,-4.2169 -1.77531,-1.77525 -3.18167,-3.84717 -4.21916,-6.21579 -1.03746,-2.36851 -1.5562,-4.93509 -1.5562,-7.69972 0,-2.76151 0.51874,-5.32658 1.5562,-7.69521 1.03749,-2.3685 2.44385,-4.44118 4.21916,-6.21805 1.77527,-1.77673 3.84722,-3.18311 6.2158,-4.21915 2.36855,-1.0359 4.93512,-1.55387 7.69973,-1.55395 l 89.84893,0 c 1.97244,8e-5 3.64987,0.69122 5.03229,2.07344 1.38216,1.38236 2.07327,3.05978 2.07342,5.03226 -1.5e-4,1.97262 -0.69126,3.65004 -2.07342,5.03226 -1.38242,1.38235 -3.05985,2.0735 -5.03229,2.07344 l -90.14708,0 c -1.48171,6e-5 -2.78945,0.51804 -3.92327,1.55395 -1.13385,1.03602 -1.70078,2.34303 -1.70078,3.92101 0,1.48172 0.56693,2.76538 1.70078,3.85099 1.13382,1.08571 2.44156,1.62853 3.92327,1.62848 l 81.85785,0 c 2.76147,5e-5 5.35139,0.51804 7.76974,1.55395 2.41814,1.03602 4.51491,2.44165 6.29033,4.2169 1.77517,1.77533 3.18157,3.87211 4.21917,6.29032 1.03734,2.41829 1.55605,5.00971 1.5562,7.77426 -1.5e-4,2.7616 -0.51886,5.32667 -1.5562,7.69521 -1.0376,2.36859 -2.444,4.44127 -4.21917,6.21805 -1.77542,1.77682 -3.87219,3.15836 -6.29033,4.14462 -2.41835,0.98629 -5.00827,1.47942 -7.76974,1.47941 l -89.70438,0 c -1.97259,1e-5 -3.64998,-0.69113 -5.03225,-2.07343 -1.38231,-1.38228 -2.07347,-3.0597 -2.07347,-5.03227 0,-1.97253 0.69116,-3.64995 2.07347,-5.03226 1.38227,-1.38227 3.05966,-2.07342 5.03225,-2.07344 l 90.29613,0 c 1.47857,2e-5 2.76074,-0.51796 3.84648,-1.55395 1.08556,-1.03594 1.62836,-2.29325 1.62851,-3.77194 -1.5e-4,-1.58102 -0.54295,-2.91437 -1.62851,-4.00006 -1.08574,-1.08562 -2.36791,-1.62845 -3.84648,-1.62848 l -82.15145,0 0,0 z"
       id="path2411"
       inkscape:connector-curvature="0" />
    <path
       style="font-size:40px;font-style:normal;font-variant:normal;font-weight:normal;font-stretch:normal;text-align:start;line-height:125%;writing-mode:lr-tb;text-anchor:start;fill:#000000;fill-opacity:1;stroke:none;font-family:Space Age;-inkscape-font-specification:Space Age"
       d="m 886.7529,203.50887 c -3e-5,-1.97551 0.39052,-3.65368 1.17163,-5.03452 0.78105,-1.38073 1.72889,-2.07113 2.84352,-2.07118 l 32.03444,0 c 1.39363,5e-5 2.70395,0.46835 3.93093,1.40488 1.22686,0.93663 2.30019,2.21954 3.22003,3.84873 0.9197,1.62929 1.63059,3.55365 2.13265,5.7731 0.50193,2.21954 0.75293,4.5625 0.75301,7.02891 l 0,3.25697 c -8e-5,2.46647 -0.25108,4.81019 -0.75301,7.03116 -0.50206,2.22102 -1.21295,4.14539 -2.13265,5.7731 -0.91984,1.62775 -1.99317,2.91066 -3.22003,3.84874 -1.22698,0.9381 -2.5373,1.40714 -3.93093,1.40713 l -43.57705,0 c -2.28538,1e-5 -4.32062,-0.98702 -6.10568,-2.96108 -1.78508,-1.97404 -3.30471,-4.51502 -4.55885,-7.62293 -1.25415,-3.10788 -2.21602,-6.58619 -2.88565,-10.43495 -0.66961,-3.84869 -1.00443,-7.59805 -1.00443,-11.24806 0,-3.75231 0.34885,-7.52801 1.04654,-11.32711 0.69771,-3.79898 1.71531,-7.25245 3.05284,-10.3604 1.33752,-3.10784 2.95458,-5.64881 4.85113,-7.62294 1.89651,-1.97398 4.04364,-2.961 6.44134,-2.96108 l 48.76126,0 c 1.11624,8e-5 2.06453,0.69122 2.84482,2.07344 0.78016,1.38236 1.17027,3.05978 1.17035,5.03226 -8e-5,1.97262 -0.39019,3.65004 -1.17035,5.03226 -0.78029,1.38235 -1.72858,2.0735 -2.84482,2.07344 l -46.92088,0 c -1.95186,6e-5 -3.52721,0.61667 -4.72602,1.84983 -1.19886,1.23328 -2.1467,2.73829 -2.84356,4.51503 -0.69683,1.77686 -1.17076,3.72607 -1.42176,5.84764 -0.251,2.12167 -0.37652,4.07088 -0.37648,5.84763 -4e-5,1.77384 0.12548,3.72154 0.37648,5.84312 0.251,2.12166 0.72493,4.07087 1.42176,5.84764 0.69686,1.77683 1.6447,3.28184 2.84356,4.51503 1.19881,1.23325 2.77416,1.84985 4.72602,1.84983 l 40.56505,0 c 0.66871,2e-5 1.26813,-0.5428 1.79828,-1.62848 0.53002,-1.08563 0.79505,-2.36779 0.79511,-3.84648 -6e-5,-1.48164 -0.23703,-2.7653 -0.71089,-3.85099 -0.47397,-1.08562 -1.10147,-1.62845 -1.8825,-1.62848 l -31.70006,0 c -1.11463,3e-5 -2.06247,-0.69036 -2.84352,-2.07118 -0.78111,-1.38075 -1.17166,-3.05741 -1.17163,-5.03001 l 0,0 z"
       id="flowRoot3289"
       inkscape:connector-curvature="0" />
    <text
       xml:space="preserve"
       style="font-size:65.58854675px;font-style:normal;font-variant:normal;font-weight:normal;font-stretch:normal;text-align:start;line-height:100%;writing-mode:lr-tb;text-anchor:start;fill:#000000;fill-opacity:1;stroke:none;font-family:Times New Roman;-inkscape-font-specification:Times New Roman"
       x="159.08194"
       y="171.67877"
       id="text7996"
       sodipodi:linespacing="100%"
       transform="scale(1.5011016,0.6661774)"><tspan
         sodipodi:role="line"
         id="tspan8000"
         x="159.08194"
         y="171.67877">λ</tspan></text>
    <text
       xml:space="preserve"
       style="font-size:65.58854675px;font-style:normal;font-variant:normal;font-weight:normal;font-stretch:normal;text-align:start;line-height:100%;writing-mode:lr-tb;text-anchor:start;fill:#000000;fill-opacity:1;stroke:none;font-family:Times New Roman;-inkscape-font-specification:Times New Roman"
       x="318.96451"
       y="171.67877"
       id="text8008"
       sodipodi:linespacing="100%"
       transform="scale(1.5011016,0.6661774)"><tspan
         sodipodi:role="line"
         id="tspan8010"
         x="318.96451"
         y="171.67877">λ</tspan></text>
    <text
       xml:space="preserve"
       style="font-size:65.58854675px;font-style:normal;font-variant:normal;font-weight:normal;font-stretch:normal;text-align:start;line-height:100%;writing-mode:lr-tb;text-anchor:start;fill:#000000;fill-opacity:1;stroke:none;font-family:Times New Roman;-inkscape-font-specification:Times New Roman"
       x="478.84711"
       y="171.67877"
       id="text8012"
       sodipodi:linespacing="100%"
       transform="scale(1.5011016,0.6661774)"><tspan
         sodipodi:role="line"
         id="tspan8014"
         x="478.84711"
         y="171.67877">λ</tspan></text>
    <path
       style="font-size:40px;font-style:normal;font-variant:normal;font-weight:normal;font-stretch:normal;text-align:start;line-height:125%;writing-mode:lr-tb;text-anchor:start;fill:#000000;fill-opacity:1;stroke:none;font-family:Space Age;-inkscape-font-specification:Space Age"
       d="m 801.90625,171.2312 c -1.22692,8e-5 -2.46062,0.46824 -3.6875,1.40625 -1.22694,0.93817 -2.33344,2.26016 -3.28125,3.9375 -0.94786,1.67749 -1.73029,3.69397 -2.34375,6.0625 -0.61347,2.36863 -0.90623,5.03974 -0.90625,8 l 0,38.03125 c 0,1.97257 0.40644,3.64898 1.1875,5.03125 0.7811,1.3823 1.72911,2.06253 2.84375,2.0625 1.06013,1e-5 1.97295,-0.68019 2.78125,-2.0625 0.80829,-1.38228 1.21875,-3.05868 1.21875,-5.03125 l 0,-18.0625 17.0625,0 c 3.40168,3e-5 6.61063,0.18497 9.59375,0.53125 2.98304,0.34636 5.79195,1.23861 8.46875,2.71875 2.67672,1.4802 5.2313,3.67034 7.65625,6.53125 2.42485,2.86098 4.77537,6.80848 7.0625,11.84375 0.1667,0.39452 0.41472,0.87851 0.75,1.46875 0.38963,0.59328 0.80407,1.07424 1.25,1.46875 0.44577,0.39452 0.97302,0.59378 1.53125,0.59375 1.11454,1e-5 2.06262,-0.68019 2.84375,-2.0625 0.78101,-1.38228 1.15619,-3.05868 1.15625,-5.03125 -7e-5,-1.38227 -0.28568,-2.71707 -0.84375,-4 -2.00636,-5.22799 -4.27534,-9.64819 -6.8125,-13.25 -0.25641,-0.36398 -0.51801,-0.71262 -0.78125,-1.0625 0.79966,-0.22468 1.57501,-0.59235 2.3125,-1.15625 1.22699,-0.93808 2.29895,-2.216 3.21875,-3.84375 0.91968,-1.62771 1.623,-3.56023 2.125,-5.78125 0.50188,-2.22097 0.7499,-4.56478 0.75,-7.03125 l 0,-3.25 c -1.2e-4,-2.46641 -0.248,-4.8117 -0.75,-7.03125 -0.50212,-2.21945 -1.2053,-4.15197 -2.125,-5.78125 -0.91982,-1.62919 -1.99175,-2.90712 -3.21875,-3.84375 -1.22701,-0.93653 -2.5439,-1.4062 -3.9375,-1.40625 l -1.46875,0 -30.5625,0 -13.09375,0 z m 0.40625,14.21875 12.6875,0 31.125,0 0.5625,0 c 0.78098,3e-5 1.401,0.53938 1.875,1.625 0.47388,1.08569 0.71855,2.3621 0.71875,3.84375 -7e-5,1.47869 -0.25125,2.75812 -0.78125,3.84375 -0.53022,1.08568 -1.1438,1.62502 -1.8125,1.625 l -26.03125,0.125 c -1.25862,-0.0723 -2.54699,-0.12498 -3.875,-0.125 l -17.0625,0 0,-7.6875 c 0.11231,-0.88835 0.39791,-1.63973 0.84375,-2.28125 0.44583,-0.64139 1.02506,-0.96868 1.75,-0.96875 z"
       id="path2486"
       inkscape:connector-curvature="0" />
    <g
       id="g2550"
       transform="translate(-1.0552984e-6,2.1679843e-6)">
      <g
         transform="matrix(0.9796229,0,0,1,7.7509126,0)"
         id="g2522">
        <path
           style="fill:none;stroke:#000000;stroke-width:5;stroke-linecap:round;stroke-linejoin:miter;stroke-miterlimit:10;stroke-opacity:1;stroke-dasharray:none;marker-end:none"
           d="m 137.5,116.41548 c 0,0 42.96593,-49.599033 111.50009,-49.570986 C 317.53425,66.872541 357.5,106.41548 357.5,106.41548"
           id="path3205"
           sodipodi:nodetypes="czc"
           inkscape:connector-curvature="0" />
        <path
           style="fill:#000000;fill-opacity:1;fill-rule:evenodd;stroke:#000000;stroke-width:1.00728643px;stroke-linecap:round;stroke-linejoin:miter;stroke-opacity:1"
           d="m 379.86947,120.34084 -41.67071,-41.670712 8.05488,17.760058 -15,3.075304 48.61583,20.83535 z"
           id="path7930"
           sodipodi:nodetypes="ccccc"
           inkscape:transform-center-x="-4.0361543"
           inkscape:transform-center-y="-18.659161"
           inkscape:connector-curvature="0" />
      </g>
      <g
         transform="matrix(0.9796229,0,0,1,247.49896,-0.02560216)"
         id="g2532">
        <path
           style="fill:none;stroke:#000000;stroke-width:5;stroke-linecap:round;stroke-linejoin:miter;stroke-miterlimit:10;stroke-opacity:1;stroke-dasharray:none;marker-end:none"
           d="m 137.5,116.41548 c 0,0 42.96593,-49.599033 111.50009,-49.570986 C 317.53425,66.872541 357.5,106.41548 357.5,106.41548"
           id="path2534"
           sodipodi:nodetypes="czc"
           inkscape:connector-curvature="0" />
        <path
           style="fill:#000000;fill-opacity:1;fill-rule:evenodd;stroke:#000000;stroke-width:1.00728643px;stroke-linecap:round;stroke-linejoin:miter;stroke-opacity:1"
           d="m 379.86947,120.34084 -41.67071,-41.670712 8.05488,17.760058 -15,3.075304 48.61583,20.83535 z"
           id="path2536"
           sodipodi:nodetypes="ccccc"
           inkscape:transform-center-x="-4.0361543"
           inkscape:transform-center-y="-18.659161"
           inkscape:connector-curvature="0" />
      </g>
      <g
         transform="matrix(0.9796229,0,0,1,487.37268,-0.02560216)"
         id="g2544">
        <path
           style="fill:none;stroke:#000000;stroke-width:5;stroke-linecap:round;stroke-linejoin:miter;stroke-miterlimit:10;stroke-opacity:1;stroke-dasharray:none;marker-end:none"
           d="m 137.5,116.41548 c 0,0 42.96593,-49.599033 111.50009,-49.570986 C 317.53425,66.872541 357.5,106.41548 357.5,106.41548"
           id="path2546"
           sodipodi:nodetypes="czc"
           inkscape:connector-curvature="0" />
        <path
           style="fill:#000000;fill-opacity:1;fill-rule:evenodd;stroke:#000000;stroke-width:1.00728643px;stroke-linecap:round;stroke-linejoin:miter;stroke-opacity:1"
           d="m 379.86947,120.34084 -41.67071,-41.670712 8.05488,17.760058 -15,3.075304 48.61583,20.83535 z"
           id="path2548"
           sodipodi:nodetypes="ccccc"
           inkscape:transform-center-x="-4.0361543"
           inkscape:transform-center-y="-18.659161"
           inkscape:connector-curvature="0" />
      </g>
    </g>
    <g
       id="g2601"
       transform="matrix(-1,0,0,-1,997.71415,410.48436)">
      <g
         transform="matrix(0.9796229,0,0,1,7.7509126,0)"
         id="g2603">
        <path
           style="fill:none;stroke:#000000;stroke-width:5;stroke-linecap:round;stroke-linejoin:miter;stroke-miterlimit:10;stroke-opacity:1;stroke-dasharray:none;marker-end:none"
           d="m 137.5,116.41548 c 0,0 42.96593,-49.599033 111.50009,-49.570986 C 317.53425,66.872541 357.5,106.41548 357.5,106.41548"
           id="path2605"
           sodipodi:nodetypes="czc"
           inkscape:connector-curvature="0" />
        <path
           style="fill:#000000;fill-opacity:1;fill-rule:evenodd;stroke:#000000;stroke-width:1.00728643px;stroke-linecap:round;stroke-linejoin:miter;stroke-opacity:1"
           d="m 379.86947,120.34084 -41.67071,-41.670712 8.05488,17.760058 -15,3.075304 48.61583,20.83535 z"
           id="path2607"
           sodipodi:nodetypes="ccccc"
           inkscape:transform-center-x="-4.0361543"
           inkscape:transform-center-y="-18.659161"
           inkscape:connector-curvature="0" />
      </g>
      <g
         transform="matrix(0.9796229,0,0,1,247.49896,-0.02560216)"
         id="g2609">
        <path
           style="fill:none;stroke:#000000;stroke-width:5;stroke-linecap:round;stroke-linejoin:miter;stroke-miterlimit:10;stroke-opacity:1;stroke-dasharray:none;marker-end:none"
           d="m 137.5,116.41548 c 0,0 42.96593,-49.599033 111.50009,-49.570986 C 317.53425,66.872541 357.5,106.41548 357.5,106.41548"
           id="path2611"
           sodipodi:nodetypes="czc"
           inkscape:connector-curvature="0" />
        <path
           style="fill:#000000;fill-opacity:1;fill-rule:evenodd;stroke:#000000;stroke-width:1.00728643px;stroke-linecap:round;stroke-linejoin:miter;stroke-opacity:1"
           d="m 379.86947,120.34084 -41.67071,-41.670712 8.05488,17.760058 -15,3.075304 48.61583,20.83535 z"
           id="path2613"
           sodipodi:nodetypes="ccccc"
           inkscape:transform-center-x="-4.0361543"
           inkscape:transform-center-y="-18.659161"
           inkscape:connector-curvature="0" />
      </g>
      <g
         transform="matrix(0.9796229,0,0,1,487.37268,-0.02560216)"
         id="g2615">
        <path
           style="fill:none;stroke:#000000;stroke-width:5;stroke-linecap:round;stroke-linejoin:miter;stroke-miterlimit:10;stroke-opacity:1;stroke-dasharray:none;marker-end:none"
           d="m 137.5,116.41548 c 0,0 42.96593,-49.599033 111.50009,-49.570986 C 317.53425,66.872541 357.5,106.41548 357.5,106.41548"
           id="path2617"
           sodipodi:nodetypes="czc"
           inkscape:connector-curvature="0" />
        <path
           style="fill:#000000;fill-opacity:1;fill-rule:evenodd;stroke:#000000;stroke-width:1.00728643px;stroke-linecap:round;stroke-linejoin:miter;stroke-opacity:1"
           d="m 379.86947,120.34084 -41.67071,-41.670712 8.05488,17.760058 -15,3.075304 48.61583,20.83535 z"
           id="path2619"
           sodipodi:nodetypes="ccccc"
           inkscape:transform-center-x="-4.0361543"
           inkscape:transform-center-y="-18.659161"
           inkscape:connector-curvature="0" />
      </g>
    </g>
    <text
       xml:space="preserve"
       style="font-size:65.58854675px;font-style:normal;font-variant:normal;font-weight:normal;font-stretch:normal;text-align:start;line-height:100%;writing-mode:lr-tb;text-anchor:start;fill:#000000;fill-opacity:1;stroke:none;font-family:Times New Roman;-inkscape-font-specification:Times New Roman"
       x="156.1676"
       y="472.34341"
       id="text2625"
       sodipodi:linespacing="100%"
       transform="scale(1.5011016,0.6661774)"><tspan
         sodipodi:role="line"
         id="tspan2627"
         x="156.1676"
         y="472.34341">μ</tspan></text>
    <text
       xml:space="preserve"
       style="font-size:65.58854675px;font-style:normal;font-variant:normal;font-weight:normal;font-stretch:normal;text-align:start;line-height:100%;writing-mode:lr-tb;text-anchor:start;fill:#000000;fill-opacity:1;stroke:none;font-family:Times New Roman;-inkscape-font-specification:Times New Roman"
       x="316.05017"
       y="472.34341"
       id="text2629"
       sodipodi:linespacing="100%"
       transform="scale(1.5011016,0.6661774)"><tspan
         sodipodi:role="line"
         id="tspan2631"
         x="316.05017"
         y="472.34341">μ</tspan></text>
    <text
       xml:space="preserve"
       style="font-size:65.58854675px;font-style:normal;font-variant:normal;font-weight:normal;font-stretch:normal;text-align:start;line-height:100%;writing-mode:lr-tb;text-anchor:start;fill:#000000;fill-opacity:1;stroke:none;font-family:Times New Roman;-inkscape-font-specification:Times New Roman"
       x="475.93277"
       y="472.34341"
       id="text2633"
       sodipodi:linespacing="100%"
       transform="scale(1.5011016,0.6661774)"><tspan
         sodipodi:role="line"
         id="tspan2635"
         x="475.93277"
         y="472.34341">μ</tspan></text>
  </g>
</svg>
